<svg width="408" height="58" viewBox="0 0 408 58" fill="none" xmlns="http://www.w3.org/2000/svg">
<path d="M52 29.5C52 27.6998 50.8002 26 49 26C47.1998 26 46 27.6998 46 29.5C46 31.3002 47.1998 33 49 33C50.8002 33 52 31.3002 52 29.5Z" fill="url(#paint0_linear_1_70)"/>
<path fill-rule="evenodd" clip-rule="evenodd" d="M48 35C39.5 36 29 12.5 29 12.5C29 12.5 35.6756 41.4742 47.5 41C59.3244 40.5258 66 17 66 17C66 17 57.873 33.8385 48 35Z" fill="url(#paint1_linear_1_70)"/>
<path d="M41.5002 47C22 47.5909 0.500237 33.5 0.500237 33.5C0.500237 33.5 17 43 39.5 42.5C62 42 65.0002 40 65.0002 40C65.0002 40 57 46.5303 41.5002 47Z" fill="url(#paint2_linear_1_70)"/>
<path d="M106.499 47V31.88H90.8991V47H87.7791V14.36H90.8991V29.048H106.499V14.36H109.619V47H106.499ZM120.974 14.36H124.238V35.288C124.238 38.2 124.83 40.488 126.014 42.152C127.23 43.816 129.118 44.648 131.678 44.648C134.27 44.648 136.158 43.816 137.342 42.152C138.526 40.488 139.118 38.2 139.118 35.288V14.36H142.382V35.288C142.382 39.16 141.486 42.168 139.694 44.312C137.934 46.424 135.262 47.48 131.678 47.48C128.094 47.48 125.406 46.424 123.614 44.312C121.854 42.168 120.974 39.16 120.974 35.288V14.36ZM157.761 14.36L168.177 39.752L178.785 14.36H182.529V47H179.409V32.024L179.745 18.872L169.617 43.16H166.497L156.561 18.776L156.897 32.024V47H153.777V14.36H157.761ZM211.766 47L208.982 38.6H195.782L193.046 47H190.07L200.918 14.36H204.038L214.934 47H211.766ZM198.758 29.576L196.694 35.816H208.022L205.958 29.576L202.358 18.44L198.758 29.576ZM222.447 47V14.36H226.191C228.271 17.496 230.207 20.584 231.999 23.624C233.823 26.632 235.567 29.704 237.231 32.84C238.895 35.976 240.511 39.256 242.079 42.68L241.647 28.376V14.36H244.767V47H241.023C238.623 41.848 236.159 36.968 233.631 32.36C231.135 27.72 228.383 23.064 225.375 18.392L225.567 33.032V47H222.447ZM275.141 44.744C277.285 44.744 278.949 44.248 280.133 43.256C281.317 42.232 281.909 40.76 281.909 38.84C281.909 37.24 281.477 35.864 280.613 34.712C279.781 33.528 278.421 32.68 276.533 32.168L272.693 31.112C270.165 30.408 268.341 29.32 267.221 27.848C266.101 26.376 265.541 24.6 265.541 22.52C265.541 20.984 265.845 19.56 266.453 18.248C267.061 16.936 268.053 15.88 269.429 15.08C270.837 14.28 272.741 13.88 275.141 13.88C276.517 13.88 277.973 14.056 279.509 14.408C281.077 14.728 282.629 15.256 284.165 15.992L283.109 18.68C281.573 17.944 280.149 17.416 278.837 17.096C277.525 16.776 276.293 16.616 275.141 16.616C273.093 16.616 271.509 17.064 270.389 17.96C269.269 18.856 268.709 20.296 268.709 22.28C268.709 23.656 269.077 24.856 269.813 25.88C270.549 26.872 271.893 27.64 273.845 28.184L277.685 29.24C280.149 29.912 281.989 31.032 283.205 32.6C284.453 34.168 285.077 36.12 285.077 38.456C285.077 41.112 284.293 43.288 282.725 44.984C281.189 46.648 278.661 47.48 275.141 47.48C273.637 47.48 272.037 47.304 270.341 46.952C268.645 46.6 266.949 46.04 265.253 45.272L266.261 42.632C267.893 43.4 269.413 43.944 270.821 44.264C272.229 44.584 273.669 44.744 275.141 44.744ZM311.862 47L301.734 30.824C300.262 32.36 298.63 33.944 296.838 35.576V47H293.718V14.36H296.838V32.024C300.23 28.888 303.014 25.896 305.19 23.048C307.366 20.2 309.238 17.304 310.806 14.36H314.118C313.126 16.216 312.134 17.944 311.142 19.544C310.15 21.112 309.078 22.632 307.926 24.104C306.774 25.576 305.478 27.128 304.038 28.76L315.702 47H311.862ZM325.829 47H322.709V14.36H325.829V47ZM355.057 44.168V47H337.825V14.36H340.945V44.168H355.057ZM380.299 44.168V47H363.067V14.36H366.187V44.168H380.299ZM394.644 44.744C396.788 44.744 398.452 44.248 399.636 43.256C400.82 42.232 401.412 40.76 401.412 38.84C401.412 37.24 400.98 35.864 400.116 34.712C399.284 33.528 397.924 32.68 396.036 32.168L392.196 31.112C389.668 30.408 387.844 29.32 386.724 27.848C385.604 26.376 385.044 24.6 385.044 22.52C385.044 20.984 385.348 19.56 385.956 18.248C386.564 16.936 387.556 15.88 388.932 15.08C390.34 14.28 392.244 13.88 394.644 13.88C396.02 13.88 397.476 14.056 399.012 14.408C400.58 14.728 402.132 15.256 403.668 15.992L402.612 18.68C401.076 17.944 399.652 17.416 398.34 17.096C397.028 16.776 395.796 16.616 394.644 16.616C392.596 16.616 391.012 17.064 389.892 17.96C388.772 18.856 388.212 20.296 388.212 22.28C388.212 23.656 388.58 24.856 389.316 25.88C390.052 26.872 391.396 27.64 393.348 28.184L397.188 29.24C399.652 29.912 401.492 31.032 402.708 32.6C403.956 34.168 404.58 36.12 404.58 38.456C404.58 41.112 403.796 43.288 402.228 44.984C400.692 46.648 398.164 47.48 394.644 47.48C393.14 47.48 391.54 47.304 389.844 46.952C388.148 46.6 386.452 46.04 384.756 45.272L385.764 42.632C387.396 43.4 388.916 43.944 390.324 44.264C391.732 44.584 393.172 44.744 394.644 44.744Z" fill="url(#paint3_linear_1_70)"/>
<defs>
<linearGradient id="paint0_linear_1_70" x1="46" y1="29.5" x2="52" y2="29.5" gradientUnits="userSpaceOnUse">
<stop stop-color="#F15338"/>
<stop offset="1" stop-color="#FAA23F"/>
</linearGradient>
<linearGradient id="paint1_linear_1_70" x1="29" y1="26.753" x2="66" y2="26.753" gradientUnits="userSpaceOnUse">
<stop stop-color="#F15338"/>
<stop offset="1" stop-color="#FAA23F"/>
</linearGradient>
<linearGradient id="paint2_linear_1_70" x1="0.500237" y1="40.259" x2="65.0002" y2="40.259" gradientUnits="userSpaceOnUse">
<stop stop-color="#F15338"/>
<stop offset="1" stop-color="#FAA23F"/>
</linearGradient>
<linearGradient id="paint3_linear_1_70" x1="82" y1="29" x2="407" y2="29" gradientUnits="userSpaceOnUse">
<stop stop-color="#F15338"/>
<stop offset="1" stop-color="#FAA23F"/>
</linearGradient>
</defs>
</svg>
